<mxfile host="app.diagrams.net" modified="2023-06-14T07:48:17.860Z" agent="Mozilla/5.0 (Macintosh; Intel Mac OS X 10_15_7) AppleWebKit/537.36 (KHTML, like Gecko) Chrome/114.0.0.0 Safari/537.36" version="21.3.3" etag="AzKQwpHlJd0fIevAcu_0" type="github">
  <diagram name="第 1 页" id="GyFrjFyid_T14M0yLBR1">
    <mxGraphModel>
      <root>
        <mxCell id="0" />
        <mxCell id="1" parent="0" />
      </root>
    </mxGraphModel>
  </diagram>
</mxfile>
